<?xml version="1.0" encoding="utf-8"?>
<!-- Generator: Adobe Illustrator 16.0.0, SVG Export Plug-In . SVG Version: 6.00 Build 0)  -->
<!DOCTYPE svg PUBLIC "-//W3C//DTD SVG 1.1//EN" "http://www.w3.org/Graphics/SVG/1.1/DTD/svg11.dtd">
<svg version="1.1" id="_x35_" xmlns="http://www.w3.org/2000/svg" xmlns:xlink="http://www.w3.org/1999/xlink" x="0px" y="0px"
	 width="86.601px" height="100px" viewBox="0 0 86.601 100" enable-background="new 0 0 86.601 100" xml:space="preserve">
<polygon fill="#F15B47" points="86.601,75 43.301,100 0,75 0,25 43.301,0 86.601,25 "/>
<g>
	<path fill="#FFFFFF" d="M40.885,43.628c-1.057,1.365-2.715,2.048-4.977,2.048c-1.579,0-2.923-0.447-4.032-1.344
		c-1.109-0.896-1.834-2.08-2.176-3.552l4.16-1.856c0.128,0.512,0.336,0.96,0.624,1.344s0.677,0.576,1.168,0.576
		c0.704,0,1.168-0.288,1.393-0.864c0.224-0.576,0.336-1.376,0.336-2.4V22.508h5.088v15.52
		C42.469,40.396,41.941,42.263,40.885,43.628z"/>
	<path fill="#FFFFFF" d="M54.5,27.916c-0.384-0.448-0.832-0.794-1.344-1.04c-0.512-0.245-1.045-0.368-1.6-0.368
		c-0.576,0-1.094,0.182-1.552,0.545c-0.46,0.363-0.688,0.962-0.688,1.795c0,0.705,0.234,1.255,0.704,1.65
		c0.469,0.396,1.162,0.829,2.08,1.298c0.515,0.257,1.058,0.561,1.626,0.914c0.569,0.353,1.091,0.785,1.562,1.298
		c0.473,0.513,0.865,1.127,1.177,1.843c0.311,0.716,0.467,1.565,0.467,2.548c0,1.218-0.193,2.292-0.58,3.222
		s-0.907,1.698-1.562,2.308c-0.654,0.608-1.41,1.068-2.268,1.378s-1.745,0.465-2.662,0.465c-1.365,0-2.608-0.257-3.728-0.769
		c-1.12-0.512-2.021-1.109-2.704-1.792l2.624-3.84c0.49,0.512,1.056,0.923,1.695,1.232c0.641,0.31,1.291,0.464,1.952,0.464
		c0.619,0,1.142-0.202,1.568-0.608c0.427-0.405,0.64-0.97,0.64-1.696c0-0.747-0.256-1.338-0.768-1.776
		c-0.513-0.437-1.259-0.901-2.24-1.392c-0.619-0.299-1.2-0.629-1.744-0.992c-0.544-0.362-1.023-0.8-1.439-1.312
		c-0.416-0.512-0.742-1.109-0.977-1.792c-0.234-0.683-0.352-1.493-0.352-2.432c0-1.258,0.208-2.341,0.624-3.248
		c0.416-0.906,0.96-1.648,1.632-2.224c0.672-0.576,1.418-1.002,2.24-1.28c0.82-0.277,1.647-0.416,2.479-0.416
		c1.237,0,2.347,0.202,3.328,0.604c0.981,0.403,1.803,0.954,2.464,1.653L54.5,27.916z"/>
	<path fill="#FFFFFF" d="M43.301,56.612c0,1.259-0.192,2.347-0.576,3.264c-0.384,0.918-0.896,1.675-1.536,2.272
		c-0.64,0.597-1.365,1.04-2.176,1.327c-0.811,0.289-1.632,0.433-2.464,0.433h-2.208v8.256h-5.024V49.508h7.04
		c0.811,0,1.627,0.118,2.448,0.353s1.568,0.624,2.24,1.168s1.216,1.274,1.632,2.191C43.093,54.138,43.301,55.268,43.301,56.612z
		 M38.501,56.708c0-1.024-0.246-1.76-0.736-2.208c-0.491-0.448-1.088-0.672-1.792-0.672h-1.632v5.92h1.632
		c0.704,0,1.301-0.261,1.792-0.784C38.255,58.441,38.501,57.689,38.501,56.708z"/>
	<path fill="#FFFFFF" d="M53.542,64.004v8.16h-5.024v-8.16L42.79,49.508h5.536l2.72,9.376h0.063l2.753-9.376h5.439L53.542,64.004z"
		/>
</g>
<g>
	<path fill="#FFFFFF" d="M35.906,77.478c0,0.264-0.03,0.514-0.09,0.75s-0.146,0.468-0.258,0.696
		c-0.112,0.228-0.246,0.46-0.402,0.695c-0.156,0.236-0.326,0.49-0.51,0.763l-1.932,2.771h3.108v0.744h-4.02v-0.792l2.316-3.3
		c0.288-0.416,0.516-0.806,0.684-1.17s0.252-0.73,0.252-1.099c0-0.208-0.024-0.405-0.072-0.594
		c-0.048-0.188-0.122-0.354-0.222-0.498c-0.1-0.144-0.224-0.258-0.372-0.342c-0.148-0.084-0.322-0.126-0.522-0.126
		c-0.344,0-0.626,0.114-0.846,0.342c-0.22,0.229-0.37,0.559-0.45,0.99l-0.792-0.096c0.112-0.641,0.352-1.126,0.72-1.458
		c0.368-0.332,0.84-0.498,1.416-0.498c0.336,0,0.628,0.058,0.876,0.174c0.248,0.116,0.454,0.275,0.618,0.479s0.288,0.44,0.372,0.708
		C35.864,76.888,35.906,77.174,35.906,77.478z"/>
	<path fill="#FFFFFF" d="M41.93,79.65c0,0.496-0.03,1.004-0.09,1.524c-0.06,0.52-0.174,0.991-0.342,1.416
		c-0.168,0.424-0.4,0.771-0.696,1.044c-0.296,0.271-0.68,0.407-1.152,0.407s-0.856-0.136-1.152-0.407
		c-0.296-0.272-0.528-0.62-0.696-1.044c-0.168-0.425-0.284-0.896-0.348-1.416c-0.064-0.521-0.096-1.028-0.096-1.524
		s0.032-1.004,0.096-1.524c0.064-0.52,0.18-0.991,0.348-1.416c0.168-0.424,0.4-0.771,0.696-1.044
		c0.296-0.271,0.68-0.407,1.152-0.407s0.856,0.136,1.152,0.407c0.296,0.272,0.528,0.62,0.696,1.044
		c0.168,0.425,0.282,0.896,0.342,1.416C41.9,78.646,41.93,79.154,41.93,79.65z M41.078,79.65c0-0.2-0.006-0.432-0.018-0.692
		s-0.034-0.527-0.066-0.801c-0.032-0.272-0.08-0.539-0.144-0.8c-0.064-0.262-0.148-0.494-0.252-0.699
		c-0.104-0.204-0.234-0.368-0.39-0.493c-0.156-0.124-0.342-0.187-0.558-0.187c-0.216,0-0.402,0.062-0.558,0.187
		c-0.156,0.125-0.286,0.289-0.39,0.493c-0.104,0.205-0.19,0.438-0.258,0.699c-0.068,0.261-0.118,0.527-0.15,0.8
		c-0.032,0.273-0.054,0.54-0.066,0.801c-0.012,0.261-0.018,0.492-0.018,0.692c0,0.209,0.006,0.443,0.018,0.704
		c0.012,0.261,0.034,0.526,0.066,0.795c0.032,0.269,0.082,0.534,0.15,0.795s0.154,0.493,0.258,0.698
		c0.104,0.204,0.234,0.369,0.39,0.493c0.156,0.125,0.342,0.187,0.558,0.187c0.216,0,0.402-0.062,0.558-0.187
		c0.156-0.124,0.286-0.289,0.39-0.493c0.104-0.205,0.188-0.438,0.252-0.698s0.112-0.526,0.144-0.795
		c0.032-0.269,0.054-0.534,0.066-0.795S41.078,79.859,41.078,79.65z"/>
	<path fill="#FFFFFF" d="M45.338,83.898v-7.536l-1.56,1.212l-0.396-0.647l2.003-1.524h0.745v8.496H45.338z"/>
	<path fill="#FFFFFF" d="M53.005,81.582c0,0.32-0.047,0.629-0.144,0.925s-0.239,0.558-0.432,0.785
		c-0.192,0.229-0.428,0.41-0.708,0.547c-0.28,0.136-0.6,0.203-0.96,0.203c-0.56,0-1.03-0.14-1.41-0.42
		c-0.38-0.279-0.65-0.684-0.81-1.212l0.744-0.216c0.112,0.336,0.29,0.608,0.534,0.816s0.546,0.312,0.906,0.312
		c0.248,0,0.464-0.054,0.648-0.162c0.184-0.107,0.336-0.248,0.456-0.42c0.12-0.172,0.21-0.361,0.27-0.569
		c0.06-0.208,0.09-0.412,0.09-0.612c0-0.576-0.154-1.014-0.462-1.314c-0.308-0.3-0.706-0.449-1.194-0.449h-0.252v-0.673h0.264
		c0.432,0,0.78-0.147,1.044-0.443s0.396-0.696,0.396-1.2c0-0.176-0.024-0.352-0.072-0.528c-0.048-0.176-0.125-0.336-0.228-0.479
		c-0.104-0.145-0.234-0.262-0.39-0.354c-0.156-0.092-0.346-0.138-0.57-0.138c-0.256,0-0.486,0.074-0.69,0.222
		c-0.204,0.148-0.362,0.351-0.474,0.606l-0.72-0.24c0.176-0.439,0.444-0.768,0.804-0.984c0.36-0.216,0.736-0.323,1.128-0.323
		c0.312,0,0.592,0.054,0.84,0.162c0.248,0.107,0.457,0.258,0.626,0.449c0.17,0.192,0.302,0.418,0.396,0.679
		c0.094,0.26,0.142,0.542,0.142,0.846c0,0.232-0.028,0.458-0.083,0.678c-0.056,0.221-0.137,0.422-0.244,0.606
		c-0.107,0.184-0.242,0.342-0.404,0.474c-0.162,0.132-0.354,0.222-0.577,0.271v0.023c0.464,0.088,0.836,0.324,1.116,0.708
		C52.866,80.538,53.005,81.014,53.005,81.582z"/>
</g>
</svg>
